<?xml version="1.0" standalone="no"?><!DOCTYPE svg PUBLIC "-//W3C//DTD SVG 1.1//EN" "http://www.w3.org/Graphics/SVG/1.1/DTD/svg11.dtd"><svg t="1728297264905" class="icon" viewBox="0 0 1024 1024" version="1.1" xmlns="http://www.w3.org/2000/svg" p-id="4465" xmlns:xlink="http://www.w3.org/1999/xlink" width="200" height="200"><path d="M507.635197 484.198648m-429.71823 0a429.71823 429.71823 0 1 0 859.43646 0 429.71823 429.71823 0 1 0-859.43646 0Z" fill="#F0F0FF" p-id="4466"></path><path d="M894.250725 758.323978L212.224637 76.293527c-40.306261-40.306261-105.684509-40.306261-145.999495 0-40.314986 40.319349-40.314986 105.697597 0 146.016946L748.255593 904.327836l227.366751 85.481208-81.371619-231.485066z" fill="#FFD761" p-id="4467"></path><path d="M909.672592 742.893385L227.646504 60.867297c-48.756659-48.756659-128.086571-48.756659-176.847593 0-48.756659 48.761022-48.756659 128.095296 0 176.86068l682.030451 682.026089a21.708405 21.708405 0 0 0 7.743654 4.995201l227.366751 85.481209a21.804383 21.804383 0 0 0 28.2567-27.641571l-81.371618-231.489428a21.71713 21.71713 0 0 0-5.152257-8.206092z m73.627966 226.49859l-227.366751-85.485571c2.909869 1.090655 5.549255 2.800803 7.743653 4.999564L81.651372 206.87988c-31.746798-31.75116-31.746798-83.413325 0-115.164486 31.746798-31.738072 83.4046-31.738072 115.151397 0l682.026089 682.021726a21.78257 21.78257 0 0 1-5.156619-8.188641l81.371618 231.493791a21.786932 21.786932 0 0 1 5.322399-22.820873 21.804383 21.804383 0 0 1 22.934302-4.829422z" fill="#6E6E96" p-id="4468"></path><path d="M286.524445 181.432708L863.40699 758.31089l-32.911617 32.911618L253.612828 214.344325z" fill="#FFFFFF" opacity=".32" p-id="4469"></path><path d="M986.537623 970.923255l-209.663233-121.154365-198.263702-196.832763 103.093112-112.778131a19.623072 19.623072 0 1 0-28.97217-26.485476l-102.006819 111.569685L55.724311 133.819056a21.808745 21.808745 0 0 0-30.843735 0.113428 21.808745 21.808745 0 0 0 0.109066 30.843735l496.278748 492.701398-8.001048 8.751419a19.623072 19.623072 0 0 0 1.243347 27.728823 19.623072 19.623072 0 0 0 27.733185-1.238985l6.910393-7.556061 199.000985 197.565683c1.3306 1.326237 2.822616 2.464881 4.454237 3.407208l212.097575 122.563491a21.817471 21.817471 0 0 0 21.830559-37.77594z" fill="#6E6E96" opacity=".15" p-id="4470"></path><path d="M748.255593 904.327836l239.747871 97.853603-93.752739-243.857461z" fill="#F0F0FF" p-id="4471"></path><path d="M740.010238 924.522411l239.747871 97.853603a21.813108 21.813108 0 0 0 28.60571-28.021119l-93.752739-243.861823a21.813108 21.813108 0 0 0-35.786585-7.599687l-145.995133 146.012583a21.813108 21.813108 0 0 0 7.180876 35.616443z m133.880132-158.380615l93.752739 243.857461a21.817471 21.817471 0 0 1 28.60571-28.021119l-239.747872-97.853603a21.813108 21.813108 0 0 1 7.189601 35.616443l145.995132-146.016946a21.813108 21.813108 0 0 1-19.954631 5.911353 21.721493 21.721493 0 0 1-15.840679-13.493589z" fill="#6E6E96" p-id="4472"></path><path d="M286.511358 150.580248L212.224637 76.293527c-40.306261-40.306261-105.684509-40.306261-145.999495 0-40.314986 40.319349-40.314986 105.697597 0 146.016946l74.277995 74.273633 146.008221-146.003858z" fill="#FFABF1" p-id="4473"></path><path d="M301.937588 135.154018L227.646504 60.867297c-48.756659-48.756659-128.086571-48.756659-176.847593 0-48.756659 48.761022-48.756659 128.095296 0 176.86068L125.076907 312.010336l15.42623 15.421867 15.42623-15.421867L301.937588 166.006478l15.42623-15.42623-15.42623-15.42623zM155.929367 281.157876L81.651372 206.87988c-31.746798-31.75116-31.746798-83.413325 0-115.164486 31.746798-31.738072 83.4046-31.738072 115.151397 0l74.286721 74.286721V135.154018L125.08127 281.157876h30.848097z" fill="#6E6E96" p-id="4474"></path><path d="M509.642003 351.631665c-119.077757 125.015285-184.93153 226.655644-184.93153 226.655644l-55.614701 76.620723 112.464023 101.971918 71.128183-61.53914c79.238296-82.296494 146.374681-144.014502 214.907103-225.564989L509.642003 351.631665z" fill="#F0F0FF" p-id="4475"></path><path d="M495.424219 338.090088c-62.119369 65.212468-109.610868 124.003157-138.504511 161.831449a1474.984919 1474.984919 0 0 0-36.14432 49.271448 919.998373 919.998373 0 0 0-9.292384 13.524127l-2.386354 3.581713-0.623855 0.946689c0.73292-1.116831 1.413489-1.902103 2.355816-2.835704a19.35259 19.35259 0 0 0-2.002444 2.34709L253.207104 643.377623a19.631797 19.631797 0 0 0 2.700463 26.084115l112.45966 101.971918a19.631797 19.631797 0 0 0 26.031763 0.296658l71.132546-61.534778c0.396999-0.344647 0.924876-0.855074 1.295698-1.230259l71.128183-72.332267c49.921479-50.187599 97.081419-97.596208 144.664533-154.218674a19.631797 19.631797 0 0 0-3.271966-28.352678l-157.953078-118.144156a19.623072 19.623072 0 0 0-25.970687 2.172586z m157.137268 119.055944c-46.522997 55.357306-93.120158 102.198774-142.439596 151.788694l-71.577533 72.790342c0.370823-0.375185 0.8987-0.885612 1.295699-1.23026l-71.128183 61.539141a19.631797 19.631797 0 0 1 26.031763 0.301021l-112.45966-101.971918a19.631797 19.631797 0 0 1 2.700463 26.079752L340.594778 589.826443c0.209406-0.279208 0.405724-0.571503 0.593316-0.855074 0.645668-0.99904 66.412189-101.736336 182.671693-223.793764a19.644885 19.644885 0 0 1-25.975049 2.181311l157.953078 118.144156a19.614347 19.614347 0 0 1-7.743653-13.471775 19.618709 19.618709 0 0 1 4.467324-14.885265z" fill="#6E6E96" p-id="4476"></path><path d="M223.022125 904.127155l153.14547-144.786686c7.72184-8.633628-7.145974-37.636337-37.649425-64.793657-30.50345-27.17477-61.495514-42.169101-69.191179-33.539835-0.074165 0.091615-0.10034 0.205043-0.178867 0.292296l-0.043627-0.052351-125.137438 172.498058" fill="#F0F0FF" p-id="4477"></path><path d="M236.511351 918.39729l153.14547-144.782323c0.405724-0.379548 0.789635-0.780909 1.160457-1.186633 3.503185-3.917634 7.547335-10.828027 6.945294-21.499-1.3306-23.248411-24.727339-51.93701-46.17835-71.036568-16.390369-14.597332-71.82184-60.047124-96.893826-31.947478a21.320132 21.320132 0 0 0-2.813891 4.070326 19.627435 19.627435 0 0 1 32.361927-3.276329 19.692874 19.692874 0 0 0-15.75779-7.076172 19.631797 19.631797 0 0 0-15.256087 8.066488L128.082753 822.223297a19.631797 19.631797 0 0 0 31.781699 23.056455l125.141801-172.493696a19.605622 19.605622 0 0 1-15.234275 8.0883 19.627435 19.627435 0 0 1-15.740338-7.045634 19.666698 19.666698 0 0 0 32.593146-3.529361c-0.53224 1.003403-1.055754 1.819213-1.753774 2.717914a18.458252 18.458252 0 0 1-0.885612 1.064479c-3.128 3.507548-6.827503 4.166304-7.883258 4.122678 5.331124 0.226856 25.27703 9.545416 49.363064 31.000789 24.31289 21.642966 32.763288 39.800197 33.090485 43.966501-0.065439-0.850711 0.335922-3.96126 2.979671-6.914755a16.447084 16.447084 0 0 1 1.156094-1.182271L209.537262 889.861382a19.63616 19.63616 0 0 0 26.974089 28.535908z" fill="#6E6E96" p-id="4478"></path><path d="M925.050834 32.078357c-108.41551-82.431736-381.249503 271.542658-381.249504 271.542657l-55.86337 72.358442s-4.384435 9.104791-1.758136 8.78632c13.641918-1.622895 60.867297-4.061601 115.552759 68.528061 7.07181 10.937092 16.652127 27.087518 22.88195 59.981684 0.143967 0.737283-0.122153-0.759096 0 0 3.158538 12.442197 128.898018-121.224167 235.350349-254.079083 0.008725 0 134.355658-174.456876 65.085952-227.118081z" fill="#96EBFF" p-id="4479"></path><path d="M67.001688 1013.397739l92.269447-54.755264a19.753951 19.753951 0 0 1-7.608412 2.600122l17.437399-2.155135a19.623072 19.623072 0 0 0 12.272055-6.452317l47.535125-53.551181c0.641305-0.724195 1.230259-1.492017 1.758136-2.299101 5.283135-8.0883 10.84984-25.621677-11.220663-52.080977-3.407207-4.092139-34.024086-39.634417-58.637997-29.277554a19.514007 19.514007 0 0 0-7.573511 5.662683l-69.959 85.485571a19.151909 19.151909 0 0 0-2.115872 3.175988l-41.484169 77.515061a19.631797 19.631797 0 0 0 27.327462 26.132104z m46.658238-81.964935l69.959001-85.485571a19.692874 19.692874 0 0 1-7.577874 5.662683c-3.655877 1.544368-6.718437 1.177908-7.590962 0.903063 7.573511 2.355816 26.289158 20.609025 27.768087 28.43993-0.117791-0.641305-0.091615-3.075648 1.574906-5.636507 0.527877-0.811448 1.116831-1.574906 1.758137-2.299102l-47.539488 53.555543a19.644885 19.644885 0 0 1 12.272055-6.452317l-17.437399 2.150772a19.544545 19.544545 0 0 0-7.608412 2.604486l-92.269447 54.755263a19.631797 19.631797 0 0 1 27.323099 26.145192l41.488532-77.519424a19.544545 19.544545 0 0 1-2.120235 3.175989z" fill="#6E6E96" p-id="4480"></path><path d="M488.391673 373.684718c2.87933-0.344647 5.684496-1.029579 8.925924-1.827939 16.953148-4.153216 48.503627-11.892507 88.617933 41.366378a24.186374 24.186374 0 0 1-0.79836-1.143007c6.871129 10.614258 14.649683 24.334703 20.076785 52.966589 2.011169 10.622984 12.267692 17.821309 22.895038 15.862493 10.622984-1.954454 17.620629-12.350582 15.722888-22.977928s-12.058286-17.9391-22.689995-16.111162c-10.640434 1.827938-17.768958 12.132451-16.006458 22.790335a20.530497 20.530497 0 0 0 15.971557 16.752467c11.347179 2.451793 19.540182 4.236106 101.478942-84.285849 49.05768-52.997127 104.676743-117.694806 152.591416-177.488898 0.444987-0.54969 0.850711-1.121194 1.23026-1.723236 21.289594-33.369693 89.006206-146.00822 66.403463-194.136662a19.618709 19.618709 0 0 0-26.11029-9.4189 19.623072 19.623072 0 0 0-9.423263 26.11029c9.056802 19.282788-25.761281 96.40085-63.964758 156.325821 0.379548-0.593317 0.789635-1.169183 1.230259-1.718873-105.012665 131.053153-209.052465 239.826398-225.482098 248.922464 1.644708-0.911788 7.33793-2.665562 13.794609 0.130879a18.711284 18.711284 0 0 1 11.01562 14.099993c1.762499 10.653522-5.440189 20.504322-16.089349 22.33226-10.618621 1.819213-20.683189-5.104267-22.611467-15.705438-1.923916-10.644797 5.169707-20.556673 15.81014-22.51549 10.592445-1.950092 20.752991 4.877411 22.807786 15.452406-6.426142-33.928108-16.1417-52.255482-25.700204-67.005506a20.609025 20.609025 0 0 0-0.79836-1.143006c-55.69759-73.933349-109.196419-60.810583-129.338643-55.880821-1.51383 0.370823-3.586075 0.88125-4.266644 0.977227l0.047989-0.004362a19.63616 19.63616 0 0 0-17.180004 21.813108 19.675424 19.675424 0 0 0 21.839284 17.184367z" fill="#6E6E96" opacity=".15" p-id="4481"></path><path d="M394.11542 740.040231l223.340051-248.21572a19.631797 19.631797 0 1 0-29.185939-26.25862l-223.344413 248.211358a19.631797 19.631797 0 0 0 1.461478 27.720097 19.627435 19.627435 0 0 0 27.728823-1.457115z" fill="#6E6E96" opacity=".15" p-id="4482"></path><path d="M346.541031 710.880468l-128.854392 137.723602a19.631797 19.631797 0 0 0 28.671149 26.821397l128.854392-137.727964a19.631797 19.631797 0 1 0-28.671149-26.817035z" fill="#6E6E96" opacity=".15" p-id="4483"></path><path d="M808.1762 120.386544l-126.516026 148.329135a19.631797 19.631797 0 1 0 29.875232 25.482073l126.516027-148.329136A19.631797 19.631797 0 0 0 808.1762 120.386544z" fill="#6E6E96" p-id="4484"></path><path d="M828.628171 854.803355l120.91442 108.123214-168.610963-60.426672z" fill="#6E6E96" opacity=".15" p-id="4485"></path><path d="M568.594109 344.014528s224.36963-280.041044 338.01156-280.041045c0 0 23.819914-41.789553-41.789552-41.789552S545.354424 333.740554 545.354424 333.740554l23.239685 10.273974z" fill="#FFFFFF" opacity=".6" p-id="4486"></path><path d="M323.323159 657.926967l179.225221-225.181078s56.535214 6.565746 85.721152 32.824365c0 0-11.918682-53.027666-99.716442-61.321009 0 0-122.602755 98.407656-188.085706 240.864702l22.855775 12.81302zM195.799366 823.039107l109.767923-129.652752-29.473872-15.177561-94.568549 137.213176z" fill="#FFFFFF" p-id="4487"></path><path d="M164.462655 241.77649L91.615599 168.925072s-35.873838-63.83388 20.290554-96.326686c0 0-125.499536 36.872878-56.168754 122.716184L125.076907 281.157876l39.385748-39.381386z" fill="#6E6E96" opacity=".15" p-id="4488"></path><path d="M936.934615 16.451446c-53.8173-40.917028-140.192846-5.152256-256.73592 106.299639-81.89077 78.317783-149.131857 165.225569-151.950111 168.885808l-55.850282 72.345354a20.26874 20.26874 0 0 0-2.150772 3.481372c-2.534683 5.270047-8.476574 17.607541-0.676207 28.496645a20.308004 20.308004 0 0 0 18.981767 8.293343c17.677343-2.107146 53.904553 2.988396 97.508956 60.849847a27.214034 27.214034 0 0 1-0.811448-1.151733c6.871129 10.627346 14.658409 24.352154 20.081148 52.975315 2.019894 10.640434 12.315681 17.85621 22.96484 15.853767 10.596808-1.993718 17.563915-12.376758 15.657449-22.991016-1.906466-10.609896-12.053924-17.904199-22.672545-16.089349-10.631709 1.819213-17.760233 12.088825-16.032634 22.729259a20.543585 20.543585 0 0 0 15.980283 16.804818c11.351541 2.456156 19.540182 4.240468 101.483304-84.281487 49.066405-53.005853 104.676743-117.699169 152.591416-177.488898a19.644885 19.644885 0 0 1-9.397087 6.434867c3.215252-1.016491 11.761628-3.725679 47.866685-63.415068 26.817035-44.350411 43.198679-82.898536 48.695582-114.588619 8.0883-46.771666-9.423263-71.193622-25.534424-83.443864zM844.647717 246.911296c-104.999577 131.048791-209.04374 239.817673-225.477736 248.918102 1.644708-0.911788 7.333567-2.661199 13.79461 0.130878a18.715647 18.715647 0 0 1 11.024345 14.156707c1.727598 10.649159-5.488178 20.482509-16.12425 22.288634-10.622984 1.801763-20.661376-5.073729-22.567841-15.679262-1.906466-10.601171 5.12608-20.53486 15.7098-22.537303s20.770442 4.750895 22.873225 15.312802c-6.395603-33.784142-16.115524-52.115878-25.665303-66.874627-0.261757-0.392636-0.523515-0.776547-0.811447-1.151732-55.41402-73.558163-107.464458-79.321186-133.552936-76.210637a18.903239 18.903239 0 0 1 16.721929 6.63991c5.174069 6.129483 4.650555 12.987525 4.017974 15.107759 0.139604-0.484251 0.650031-1.727598 1.047029-2.560859a19.675424 19.675424 0 0 1-2.168223 3.516273l55.859008-72.358442c100.916163-130.878649 286.205429-319.330815 353.826064-267.912957 6.631185 5.038828 10.308875 11.927408 11.60021 21.677867 6.810052 51.422221-57.316123 147.997576-80.311501 177.768106 3.450834-4.462962 8.629266-7.1896 14.26141-7.547336a19.627435 19.627435 0 0 1-14.056367 7.316117z" fill="#6E6E96" p-id="4489"></path></svg>